<?xml version="1.0" standalone="no"?>
<!DOCTYPE svg PUBLIC "-//W3C//DTD SVG 20010904//EN"
 "http://www.w3.org/TR/2001/REC-SVG-20010904/DTD/svg10.dtd">
<svg version="1.0" xmlns="http://www.w3.org/2000/svg"
 width="386.000000pt" height="386.000000pt" viewBox="0 0 386.000000 386.000000"
 preserveAspectRatio="xMidYMid meet">
<metadata>
Created by potrace 1.11, written by Peter Selinger 2001-2013
</metadata>
<g transform="translate(0.000000,386.000000) scale(0.100000,-0.100000)"
fill="#000000" stroke="none">
<path d="M1936 3507 c-63 -247 -195 -615 -306 -852 -27 -58 -46 -105 -43 -105
3 0 35 11 72 24 36 13 91 29 122 36 l57 13 45 136 c25 75 51 161 58 191 16 69
26 81 35 44 16 -69 74 -264 93 -315 l21 -55 73 -18 c39 -9 98 -27 130 -40 31
-13 57 -23 57 -21 0 1 -22 49 -48 106 -113 240 -239 590 -304 841 l-33 127
-29 -112z"/>
<path d="M1538 3020 c-244 -83 -498 -265 -633 -454 -31 -44 -48 -58 -80 -67
-36 -10 -53 -9 -145 7 -35 6 -35 6 -14 -13 33 -28 70 -85 83 -124 10 -31 8
-43 -13 -91 -104 -235 -134 -560 -76 -810 13 -54 27 -95 31 -93 4 3 43 52 87
110 l79 104 -5 114 c-7 174 21 331 88 491 l33 78 53 -5 c30 -3 54 -4 54 -2 0
2 -11 21 -25 41 -14 20 -25 42 -25 49 0 23 86 129 167 206 94 90 148 128 268
190 l90 46 33 79 c68 160 72 174 54 174 -10 0 -56 -14 -104 -30z"/>
<path d="M2310 2950 c61 -154 58 -150 162 -203 116 -58 202 -122 300 -225 134
-140 145 -168 93 -230 l-24 -28 57 4 57 4 19 -38 c72 -150 111 -348 104 -528
l-5 -121 84 -108 c47 -60 87 -106 89 -104 16 16 46 204 51 323 9 204 -19 371
-94 558 l-35 88 17 45 c10 24 35 63 56 85 22 23 39 42 39 43 0 1 -28 -4 -62
-11 -53 -11 -142 -7 -152 7 -167 238 -397 412 -669 508 -135 47 -132 49 -87
-69z"/>
<path d="M1940 2383 c-98 -295 -320 -682 -524 -912 -26 -29 -45 -55 -43 -57 2
-2 55 5 118 15 309 53 640 53 948 0 63 -10 115 -18 117 -17 1 2 -36 50 -83
107 -198 244 -375 556 -475 841 -17 47 -31 86 -33 88 -2 2 -13 -27 -25 -65z"/>
<path d="M1715 2417 c-177 -70 -328 -215 -399 -385 -51 -120 -69 -275 -48
-396 l7 -39 40 54 c86 114 205 308 308 499 61 112 138 280 129 279 -4 0 -20
-6 -37 -12z"/>
<path d="M2186 2393 c25 -60 142 -290 192 -378 55 -98 264 -415 273 -415 10 0
19 83 19 169 -1 214 -119 440 -294 560 -46 32 -148 85 -183 96 -22 6 -22 6 -7
-32z"/>
<path d="M1013 1587 c-159 -224 -367 -471 -558 -661 -60 -61 -101 -106 -90
-102 170 65 660 161 963 188 73 7 131 15 130 18 -2 4 -44 46 -94 94 l-92 86
-103 -20 c-57 -11 -146 -31 -198 -45 -88 -24 -127 -26 -89 -4 18 10 202 209
243 264 l25 32 -20 57 c-11 32 -23 81 -26 109 -12 94 -13 93 -91 -16z"/>
<path d="M2836 1668 c-3 -13 -6 -33 -6 -44 0 -12 -11 -61 -25 -109 l-26 -87
68 -77 c37 -42 99 -109 137 -148 38 -40 67 -75 65 -78 -3 -2 -36 4 -73 15 -37
10 -123 30 -192 45 l-126 26 -89 -86 c-50 -47 -95 -85 -100 -85 -6 0 -7 -4 -4
-10 3 -5 25 -10 49 -10 181 0 822 -117 1015 -185 24 -8 46 -15 49 -15 2 0 -55
60 -128 133 -182 181 -444 499 -592 715 l-15 23 -7 -23z"/>
<path d="M1645 1255 c-11 -2 -51 -7 -90 -11 l-70 -6 36 -32 c53 -45 162 -103
243 -129 59 -18 94 -22 206 -22 120 1 143 3 211 27 81 29 177 81 230 126 l33
27 -40 8 c-39 8 -721 19 -759 12z"/>
<path d="M1123 861 c-61 -9 -115 -19 -118 -23 -10 -9 93 -104 184 -169 177
-126 385 -209 601 -239 58 -8 80 -16 102 -37 28 -27 67 -115 69 -156 0 -13 6
-3 13 23 16 58 48 120 74 143 12 11 47 22 88 28 161 22 289 62 434 134 151 76
382 257 350 275 -8 4 -70 15 -137 24 l-121 17 -64 -44 c-147 -103 -339 -174
-518 -192 l-66 -7 -24 51 -24 52 -24 -52 -25 -51 -64 6 c-181 19 -374 90 -521
192 -35 24 -71 44 -80 43 -9 0 -67 -8 -129 -18z"/>
</g>
</svg>
